<?xml version="1.0" standalone="no"?>
<!DOCTYPE svg PUBLIC "-//W3C//DTD SVG 20010904//EN"
 "http://www.w3.org/TR/2001/REC-SVG-20010904/DTD/svg10.dtd">
<svg version="1.0" xmlns="http://www.w3.org/2000/svg"
 width="1170.000000pt" height="1170.000000pt" viewBox="0 0 1170.000000 1170.000000"
 preserveAspectRatio="xMidYMid meet">

<g transform="translate(0.000000,1170.000000) scale(0.100000,-0.100000)"
fill="#000000" stroke="none">
<path d="M0 5850 l0 -5850 5850 0 5850 0 0 5850 0 5850 -5850 0 -5850 0 0
-5850z m9836 3109 c3 -6 -8 -26 -26 -44 -40 -41 -241 -168 -330 -208 -94 -42
-613 -299 -695 -345 -38 -21 -149 -80 -245 -132 -450 -240 -803 -453 -1360
-820 -173 -114 -387 -251 -475 -305 -88 -53 -193 -122 -234 -153 -65 -50 -173
-166 -270 -289 -18 -24 -37 -43 -42 -43 -20 0 37 82 118 172 81 89 43 66 -50
-30 -404 -419 -508 -553 -578 -752 -21 -57 -24 -84 -24 -220 0 -137 3 -164 24
-230 31 -98 98 -168 181 -192 74 -21 296 -23 420 -3 119 18 191 18 355 0 72
-8 211 -15 310 -15 145 0 194 -4 247 -19 l67 -18 -30 43 c-33 48 -20 61 15 17
49 -64 126 -185 121 -193 -3 -5 8 -36 25 -70 63 -124 101 -264 121 -447 18
-164 3 -288 -86 -698 -14 -66 -28 -136 -31 -155 -3 -19 -7 -41 -10 -49 -2 -8
-7 -37 -10 -65 -3 -28 -7 -57 -10 -65 -2 -7 -11 -97 -20 -200 -29 -359 19
-597 157 -782 48 -65 166 -187 229 -238 55 -43 200 -172 295 -261 236 -219
527 -454 694 -557 2 -2 1 -6 -2 -10 -12 -12 -204 92 -377 205 -114 75 -213
119 -415 187 -93 31 -188 65 -210 75 -22 10 -89 39 -150 65 -317 137 -477 227
-613 344 -115 99 -349 339 -412 422 -82 110 -143 248 -155 354 -21 184 -25
234 -25 335 0 63 4 153 10 200 37 326 31 479 -19 529 -25 25 -148 45 -222 37
-117 -12 -276 -84 -468 -211 -72 -48 -208 -125 -301 -171 -93 -46 -222 -113
-287 -150 -150 -85 -226 -119 -327 -146 -213 -58 -405 -7 -569 150 -79 77
-116 132 -153 227 -25 64 -28 82 -28 205 -1 181 20 263 159 640 124 335 216
521 455 920 235 391 316 575 415 935 66 242 82 453 51 666 -34 225 -70 308
-157 351 -156 79 -504 58 -831 -52 -253 -84 -475 -224 -641 -403 -215 -232
-331 -445 -407 -747 -28 -110 -34 -140 -64 -327 -8 -48 -13 -148 -12 -243 1
-89 -2 -164 -7 -167 -4 -2 -6 -23 -3 -46 3 -23 8 -87 11 -142 15 -273 116
-561 260 -741 116 -145 286 -210 365 -139 9 9 31 20 48 24 24 7 34 5 46 -8 9
-10 16 -23 16 -30 0 -7 9 -3 19 10 25 31 39 18 17 -16 -24 -37 -81 -71 -165
-100 -165 -56 -302 -13 -464 144 -115 111 -233 301 -304 490 -33 88 -80 275
-93 373 -6 45 -14 86 -17 91 -2 4 -5 94 -5 200 0 301 43 511 164 811 100 248
148 335 297 536 188 253 521 537 761 647 207 95 529 163 676 142 32 -5 115
-14 184 -19 160 -14 221 -41 331 -150 95 -94 141 -182 207 -400 93 -303 91
-597 -6 -960 -64 -238 -104 -335 -216 -534 -31 -54 -56 -100 -56 -101 0 -7
-126 -215 -276 -455 -255 -409 -354 -621 -399 -855 -12 -62 -18 -146 -19 -270
-2 -255 18 -298 159 -345 55 -18 83 -21 174 -18 l109 3 123 62 c68 34 216 119
329 190 386 242 539 322 760 398 241 83 364 67 565 -72 38 -26 77 -62 87 -78
44 -77 60 -241 38 -395 -5 -36 -11 -87 -14 -115 -3 -27 -16 -113 -28 -190 -17
-110 -22 -183 -22 -340 l0 -200 36 -105 c20 -58 49 -127 64 -155 40 -72 222
-249 344 -334 95 -67 209 -131 233 -131 5 0 -7 22 -27 48 -56 77 -103 173
-146 301 -66 194 -90 343 -90 557 0 131 5 184 25 288 14 70 27 131 29 135 3 4
7 18 10 32 3 13 21 87 41 164 47 184 83 344 90 403 4 26 8 54 10 62 3 8 11 67
20 130 17 130 19 288 5 340 -5 19 -11 48 -14 65 -12 70 -77 116 -191 135 -79
14 -303 8 -430 -10 -195 -27 -381 -39 -490 -29 -217 19 -463 83 -551 143 -120
81 -183 231 -184 436 0 166 38 313 170 665 261 689 308 839 350 1106 14 89 12
373 -4 489 -8 59 -9 97 -3 101 14 10 -2 88 -30 143 -59 117 -205 217 -423 289
-101 34 -236 75 -269 82 -9 2 -59 14 -111 27 -92 22 -111 23 -560 23 -469 1
-513 3 -655 40 -133 35 -346 133 -416 192 -33 28 -33 41 1 23 16 -8 39 -8 98
4 171 33 307 39 677 32 198 -4 563 -11 810 -16 432 -9 813 -23 899 -35 23 -3
75 -7 116 -9 67 -4 169 -16 410 -46 93 -12 340 -35 520 -49 74 -6 270 -11 435
-11 213 0 321 -4 372 -14 40 -7 74 -12 76 -10 2 2 62 -3 133 -11 149 -17 423
-19 759 -5 258 11 299 15 370 31 71 17 290 90 430 145 123 48 257 91 287 93 9
1 20 -4 24 -10z"/>
<path d="M5760 8557 c0 -2 19 -17 42 -33 217 -147 310 -267 358 -459 15 -63
20 -114 20 -240 0 -172 -15 -285 -70 -535 -44 -203 -68 -324 -64 -329 3 -3 26
15 52 40 58 56 134 118 232 190 41 31 112 83 156 116 95 70 229 150 554 333
129 73 303 176 385 230 83 54 200 124 260 155 315 166 586 328 572 342 -3 2
-39 -13 -80 -34 -42 -20 -79 -34 -83 -30 -4 4 -5 9 -3 11 2 2 95 49 207 105
l203 100 -1128 -6 c-1103 -5 -1284 -2 -1490 26 -39 6 -83 13 -97 17 -14 3 -26
4 -26 1z"/>
</g>
</svg>
